<?xml version="1.0" ?><svg id="Filled_Outline_1_" style="enable-background:new 0 0 64 64;" version="1.1" viewBox="0 0 64 64" xml:space="preserve" xmlns="http://www.w3.org/2000/svg" xmlns:xlink="http://www.w3.org/1999/xlink"><title/><desc/><style type="text/css">
	.st0{fill:#18C29C;}
	.st1{fill:#18A596;}
	.st2{fill:#FFBB2C;}
	.st3{fill:#FFD18B;}
	.st4{fill:#272A56;}
	.st5{fill:#FF7BAC;}
	.st6{fill:#FD58A1;}
	.st7{fill:none;}
	.st8{fill:#FFD8B1;}
	.st9{fill:#FFFDE9;}
	.st10{fill:#FFCAA9;}
	.st11{fill:#8C6239;}
	.st12{fill:#ECECD8;}
	.st13{fill:#96C6EE;}
	.st14{fill:#29ABE2;}
	.st15{fill:#A67C52;}
	.st16{fill:#CCCCCC;}
</style><g><g><path class="st0" d="M38.121,44.536c2.121-2.121,1.414-7.071,1.414-7.071s-4.95-0.707-7.071,1.414    c-1.562,1.562-1.562,4.095,0,5.657C34.027,46.098,36.559,46.098,38.121,44.536z"/><path class="st5" d="M30,17h-4v-2c0-5.523,4.477-10,10-10h2v4C38,13.418,34.418,17,30,17z"/><path class="st6" d="M26,3v12h9v-4c0-4.418-3.582-8-8-8H26z"/><path class="st6" d="M32,21h-4v-2c0-5.523,4.477-10,10-10h2v4C40,17.418,36.418,21,32,21z"/><rect class="st1" height="40" width="4" x="30" y="21"/><path class="st0" d="M32,22c0-1.105,0.895-2,2-2c4,0,5,5,5,5s-3-1-5-1C32.895,24,32,23.105,32,22z"/><path class="st5" d="M30,21L30,21c-3.314,0-6-2.686-6-6V7h4c4.418,0,8,3.582,8,8v0C36,18.314,33.314,21,30,21z"/><path class="st0" d="M30.389,46.389c1.172-1.172,1.172-3.071,0-4.243c-1.414-1.414-5.657-1.414-5.657-1.414s0,4.243,1.414,5.657    C27.318,47.561,29.218,47.561,30.389,46.389z"/><path class="st0" d="M32,22c0-1.105-0.895-2-2-2c-4,0-5,5-5,5s3-1,5-1C31.105,24,32,23.105,32,22z"/></g><path class="st4" d="M41,13V9c0-0.552-0.448-1-1-1h-1V5c0-0.552-0.448-1-1-1h-2c-0.983,0-1.951,0.137-2.889,0.392   C31.49,2.894,29.33,2,27,2h-1c-0.552,0-1,0.448-1,1v3h-1c-0.552,0-1,0.448-1,1v8c0,2.346,1.188,4.484,3.065,5.768   c-1.178,1.261-1.823,2.923-2.046,4.036c-0.071,0.348,0.052,0.709,0.318,0.946c0.268,0.236,0.64,0.312,0.978,0.199   c0.024-0.008,1.983-0.654,3.684-0.874V28h-2v2h2v6h-2v2h2v2.312c-1.827-0.557-3.964-0.579-4.268-0.579c-0.552,0-1,0.448-1,1   c0,0.477,0.048,4.705,1.707,6.364c0.777,0.777,1.799,1.176,2.829,1.176c0.245,0,0.489-0.031,0.732-0.076V52h-2v2h2v7   c0,0.552,0.448,1,1,1h4c0.552,0,1-0.448,1-1v-3h2v-2h-2v-6h2v-2h-2v-1.314c0.102,0.006,0.204,0.025,0.306,0.025   c1.3,0,2.564-0.51,3.522-1.469c2.406-2.406,1.777-7.362,1.697-7.92c-0.063-0.44-0.408-0.786-0.849-0.848   c-0.115-0.017-2.426-0.333-4.677,0.126V34h2v-2h-2v-6.926c1.701,0.221,3.66,0.867,3.684,0.874c0.338,0.113,0.71,0.037,0.978-0.199   c0.267-0.237,0.389-0.598,0.318-0.946c-0.256-1.282-1.073-3.289-2.619-4.575C39.63,18.543,41,15.869,41,13z M39,13   c0,2.365-1.207,4.549-3.165,5.838C36.57,17.72,37,16.398,37,15c0-1.717-0.492-3.318-1.33-4.684C36.425,10.114,37.203,10,38,10h1V13   z M37,6v2.051c-0.482,0.043-0.958,0.12-1.427,0.225c-0.245-0.773-0.585-1.497-1.011-2.157C35.035,6.043,35.515,6,36,6H37z M27,4   c2.578,0,4.87,1.418,6.086,3.582C31.638,6.586,29.887,6,28,6h-1V4z M25,8h3c3.86,0,7,3.14,7,7c0,2.055-1.269,3.892-3.167,4.642   C31.324,19.246,30.693,19,30,19c-0.825,0-1.548,0.185-2.189,0.484C26.113,18.654,25,16.923,25,15V8z M30,21   c0.551,0,0.999,0.448,1,0.999c0,0,0,0,0,0.001s0,0,0,0.001c0,0.551-0.449,0.999-1,0.999c-1.074,0-2.377,0.254-3.425,0.513   C27.146,22.345,28.196,21,30,21z M26.854,45.682c-0.617-0.617-0.964-2.401-1.078-3.904c0.997,0.076,2.322,0.262,3.225,0.657v3.689   C28.273,46.412,27.429,46.258,26.854,45.682z M31,60V24.816c0.374-0.133,0.711-0.335,1-0.596c0.289,0.261,0.626,0.463,1,0.596V60   H31z M38.623,38.383c0.103,1.567,0.003,4.234-1.209,5.446c-0.648,0.648-1.53,0.948-2.414,0.859V42h2v-2h-2v-1.346   C36.295,38.313,37.755,38.328,38.623,38.383z M34,23c-0.551,0-0.999-0.448-1-0.999c0,0,0,0,0-0.001s0,0,0-0.001   C33,21.448,33.449,21,34,21c1.804,0,2.854,1.345,3.425,2.513C36.377,23.254,35.073,23,34,23z"/></g></svg>