<?xml version="1.0" ?><!DOCTYPE svg  PUBLIC '-//W3C//DTD SVG 1.1//EN'  'http://www.w3.org/Graphics/SVG/1.1/DTD/svg11.dtd'><svg enable-background="new 0 0 128 128" id="Слой_1" version="1.1" viewBox="0 0 128 128" xml:space="preserve" xmlns="http://www.w3.org/2000/svg" xmlns:xlink="http://www.w3.org/1999/xlink"><path d="M3.5,53.1c0,0,0,17.9,0,21.8l0,0c0,13.6,16.5,24.5,35.5,24.5H58h10.9h42.9c6.5,0,11.7-5.2,11.7-11.7  c0-4.9,0-21.8,0-21.8" fill="#FAC4BC"/><g opacity="0.1"><path d="M3.5,74.9c0,13.6,16.5,24.5,35.5,24.5H58h0.9c-18.9,0-35.5-11-35.5-24.5c0-3.1,0-14.8,0-19.7l-20-2.1   C3.5,53.1,3.5,71,3.5,74.9z"/></g><path d="M73.4,40.8L73.4,40.8c-9.9-7.9-22.3-12.3-35-12.3H38C13.5,29,3.5,39.5,3.5,53.1v0  c0,16.7,16.5,24.5,35.5,24.5H58h10.9h42.9c6.5,0,11.7-5.2,11.7-11.7v0c0-5.8-4.3-10.7-10-11.6l-13-1.9  C90.5,51.1,81.2,47.1,73.4,40.8z" fill="#F48884"/><g opacity="0.1"><path d="M38,28.5C13.5,29,3.5,39.5,3.5,53.1v0c0,16.7,16.5,24.5,35.5,24.5h10c-18.9,0-35.5-7.9-35.5-24.5v0   c0-12.7,8.7-22.7,29.9-24.3c-1.6-0.1-3.3-0.2-5-0.2H38z"/></g><path d="M43,52.3c0,2-4,3.5-7.9,3.5S28,54.2,28,52.3s3.2-3.5,7.1-3.5S43,50.3,43,52.3z" fill="#F8F7FB"/><path d="M114.3,51.9l-13-1.9c-9.5-1.4-18.4-5.2-25.9-11.2C65.1,30.6,52.1,26,38.9,26h-0.4c-23.5,0.4-37,10.3-37,27  v21.8c0,14.7,17.4,27,38,27h72.9c7.8,0,14.2-6.4,14.2-14.2V66C126.5,58.9,121.3,52.9,114.3,51.9z M38.5,31h0.4  c12.1,0,24,4.2,33.4,11.7c8.2,6.5,17.9,10.8,28.3,12.2l13,1.9c4.5,0.6,7.9,4.6,7.9,9.1c0,5.1-4.1,9.2-9.2,9.2H39.5  c-15.2,0-33-5.8-33-22C6.5,39.3,17.9,31.4,38.5,31z M112.3,97H39.5c-17.9,0-33-10.1-33-22v-7.1c6.2,7.8,17.8,12.4,33,12.4h72.9  c3.5,0,6.7-1.3,9.2-3.4v11C121.5,92.8,117.4,97,112.3,97z" fill="#62355C"/><path d="M14,55.6c1.4,0,2.5-1.1,2.5-2.5c0-3.3,0-12,22-12c1.4,0,2.5-1.1,2.5-2.5S39.9,36,38.5,36  c-17.9,0-27,5.7-27,17C11.5,54.5,12.6,55.6,14,55.6z" fill="#62355C"/><path d="M66.1,50.6c9.5,7.6,21,12.6,33.1,14.3l13,1.9c0.1,0,0.2,0,0.4,0c1.2,0,2.3-0.9,2.5-2.1  c0.2-1.4-0.8-2.6-2.1-2.8l-13-1.9C88.7,58.3,78,53.8,69.2,46.7c-1.1-0.9-2.7-0.7-3.5,0.4C64.8,48.1,65,49.7,66.1,50.6z" fill="#62355C"/><path d="M26,52.3c0,3.5,4,6,9.6,6c5,0,10.4-2.1,10.4-6c0-3.9-5.4-6-10.4-6C30.1,46.2,26,48.8,26,52.3z M35.6,53.3  c-2.3,0-3.8-0.6-4.4-1c0.6-0.4,2.1-1,4.4-1c2.2,0,4,0.5,4.9,1C39.6,52.8,37.8,53.3,35.6,53.3z" fill="#62355C"/></svg>