<?xml version="1.0" ?><svg viewBox="0 0 64 64" xmlns="http://www.w3.org/2000/svg"><defs><style>.cls-1{fill:#eaeaea;}.cls-2{fill:#e66353;}.cls-2,.cls-3,.cls-4,.cls-5,.cls-6,.cls-7,.cls-9{stroke:#4c241d;stroke-linecap:round;stroke-linejoin:round;stroke-width:2px;}.cls-3{fill:none;}.cls-4{fill:#ffce56;}.cls-5{fill:#fc8c29;}.cls-6{fill:#a9ba5a;}.cls-7{fill:#f53e28;}.cls-8{fill:#4c241d;}.cls-9{fill:#bf7e68;}</style></defs><g id="fruit-basket"><circle class="cls-1" cx="36" cy="28" r="23"/><path class="cls-2" d="M47.2211,20.3447a6.3382,6.3382,0,0,0-3.8454-1.1767,6.3386,6.3386,0,0,0-3.3788-2.1807c-3.8509-.9532-7.8876,1.99-9.0162,6.5738s1.0782,9.0723,4.9292,10.0254a6.1016,6.1016,0,0,0,.7044.13,6.1338,6.1338,0,0,0,.5537.4547C40.38,36.5,45.2334,35.2932,48.01,31.4751S50.4326,22.6737,47.2211,20.3447Z"/><path class="cls-3" d="M48.4293,15.4124s-2.865-.326-4.9582,3.5926"/><path class="cls-2" d="M18.7145,35.0651a6.3391,6.3391,0,0,1-1.4569-3.7482,6.34,6.34,0,0,1-2.4239-3.2089c-1.2344-3.77,1.4032-8.0129,5.8913-9.4763s9.1271.4065,10.3615,4.1767a6.1235,6.1235,0,0,1,.1817.693,6.12,6.12,0,0,1,.4942.5186c2.56,3.0311,1.7134,7.9608-1.89,11.0108S21.274,38.0961,18.7145,35.0651Z"/><path class="cls-4" d="M38.0831,24.1114A6.3391,6.3391,0,0,0,34.1,24.665a6.3391,6.3391,0,0,0-3.9831-.5536c-3.8939.7586-6.3142,5.1289-5.4059,9.7614s4.8014,7.7728,8.6953,7.0142a6.1311,6.1311,0,0,0,.6937-.1789,6.1311,6.1311,0,0,0,.6937.1789c3.8939.7586,7.7869-2.3818,8.6953-7.0142S41.977,24.87,38.0831,24.1114Z"/><path class="cls-5" d="M54.0831,26.1114A6.3391,6.3391,0,0,0,50.1,26.665a6.3391,6.3391,0,0,0-3.9831-.5536c-3.8939.7586-6.3142,5.1289-5.4059,9.7614s4.8014,7.7728,8.6953,7.0142a6.1311,6.1311,0,0,0,.6937-.1789,6.1311,6.1311,0,0,0,.6937.1789c3.8939.7586,7.7869-2.3818,8.6953-7.0142S57.977,26.87,54.0831,26.1114Z"/><path class="cls-3" d="M53.1,21.1294s-2.7355.9118-2.9822,5.3476"/><path class="cls-6" d="M21.5355,27.9214l-.5232-3.07a5.8921,5.8921,0,0,0-5.8107-4.8993h0a5.8921,5.8921,0,0,0-5.8107,4.8993l-.4986,2.9264a8.023,8.023,0,0,1-1.4185,3.29,9.4737,9.4737,0,1,0,15.406-.0691A7.3749,7.3749,0,0,1,21.5355,27.9214Z"/><path class="cls-7" d="M18.1,14.1294s-2.7355.9118-2.9822,5.3476"/><path class="cls-6" d="M8,12h2a5,5,0,0,1,5,5v0a0,0,0,0,1,0,0H13a5,5,0,0,1-5-5v0A0,0,0,0,1,8,12Z"/><line class="cls-3" x1="49.1287" x2="51.9571" y1="4.5858" y2="7.4142"/><line class="cls-3" x1="51.9571" x2="49.1287" y1="4.5858" y2="7.4142"/><circle class="cls-8" cx="57.0429" cy="13.5" r="1.1324"/><circle class="cls-3" cx="23.1903" cy="7.2101" r="2.0846"/><path class="cls-9" d="M4.5612,41C7.1556,52.4109,18.4539,61,32,61s24.8444-8.5891,27.4388-20Z"/><rect class="cls-9" height="6" width="58" x="3" y="35"/><line class="cls-3" x1="11" x2="15" y1="46" y2="46"/><line class="cls-3" x1="18" x2="26" y1="50" y2="50"/><line class="cls-3" x1="29" x2="35" y1="50" y2="50"/><line class="cls-3" x1="48" x2="52" y1="53" y2="53"/><line class="cls-3" x1="38" x2="54" y1="45" y2="45"/><line class="cls-3" x1="14" x2="29" y1="55" y2="55"/><line class="cls-3" x1="32" x2="38" y1="55" y2="55"/><rect class="cls-9" height="33" rx="1.3164" width="6" x="29" y="12"/></g></svg>