<?xml version="1.0" ?><svg xmlns="http://www.w3.org/2000/svg" xmlns:xlink="http://www.w3.org/1999/xlink" version="1.1" viewBox="0 0 509.985 509.978" style="enable-background:new 0 0 509.985 509.978;" xml:space="preserve"><g id="_x33_9_x2C__cereal_x2C__breakfast_x2C__meal_x2C__bowl_x2C__cereals_x2C__milk"><g><g><g id="XMLID_752_"><g id="XMLID_769_"><path id="XMLID_770_" style="fill:#283954;" d="M499.718,10.252c-13.686-13.67-35.951-13.67-49.639,0.004l-84.168,84.163       C326.333,65.317,279.538,49.978,230,49.978c-127.115,0-230,102.875-230,230c0,127.115,102.875,230,230,230       c127.115,0,230-102.875,230-230c0-49.54-15.34-96.335-44.444-135.914l84.165-84.165       C513.407,46.213,513.407,23.943,499.718,10.252z M440,279.978c0,115.794-94.206,210-210,210s-210-94.206-210-210       s94.206-210,210-210c44.194,0,85.991,13.373,121.585,38.766l-14.369,14.368C305.582,101.41,268.701,89.978,230,89.978       c-104.767,0-190,85.233-190,190s85.233,190,190,190s190-85.233,190-190c0-38.706-11.432-75.59-33.134-107.224l14.365-14.365       C426.626,193.984,440,235.782,440,279.978z M485.579,45.756l-90.268,90.268c-0.003,0.003-0.006,0.006-0.009,0.009       l-66.073,66.073c-3.905,3.905-3.905,10.237,0,14.143c1.953,1.952,4.512,2.929,7.071,2.929s5.118-0.977,7.071-2.929l29.08-29.08       C390.506,214.76,400,246.609,400,279.978c0,93.738-76.262,170-170,170s-170-76.262-170-170s76.262-170,170-170       c33.362,0,65.21,9.494,92.799,27.55l-29.08,29.079c-3.905,3.905-3.905,10.236,0,14.143c3.906,3.904,10.236,3.906,14.142,0       l65.999-65.996c0.046-0.046,0.093-0.091,0.138-0.138l90.219-90.214c5.891-5.883,15.475-5.883,21.361-0.004       C491.467,30.287,491.468,39.868,485.579,45.756z"/></g><path id="XMLID_768_" style="fill:#5596FB;" d="M304.251,164.296c-7.768-2.865-15.927-4.318-24.251-4.318      c-5.522,0-10,4.477-10,10s4.478,10,10,10c5.955,0,11.785,1.037,17.326,3.081c13.728,5.069,24.515,15.854,29.592,29.581      c2.045,5.542,3.082,11.376,3.082,17.338c0,5.523,4.478,10,10,10s10-4.477,10-10c0-8.332-1.453-16.495-4.321-24.269      C338.569,186.487,323.471,171.393,304.251,164.296z"/><path id="XMLID_765_" style="fill:#5596FB;" d="M180,249.978c-22.056,0-40,17.944-40,40s17.944,40,40,40s40-17.944,40-40      S202.056,249.978,180,249.978z M180,309.978c-11.028,0-20-8.972-20-20s8.972-20,20-20s20,8.972,20,20      S191.028,309.978,180,309.978z"/><path id="XMLID_762_" style="fill:#5596FB;" d="M270,349.978c-16.542,0-30,13.458-30,30s13.458,30,30,30s30-13.458,30-30      S286.542,349.978,270,349.978z M270,389.978c-5.514,0-10-4.486-10-10s4.486-10,10-10s10,4.486,10,10      S275.514,389.978,270,389.978z"/><path id="XMLID_759_" style="fill:#5596FB;" d="M210,149.978c-16.542,0-30,13.458-30,30s13.458,30,30,30s30-13.458,30-30      S226.542,149.978,210,149.978z M210,189.978c-5.514,0-10-4.486-10-10s4.486-10,10-10s10,4.486,10,10      S215.514,189.978,210,189.978z"/><path id="XMLID_758_" style="fill:#5596FB;" d="M370,269.982c-5.476-0.002-10,4.436-10,9.995c0,5.599,4.574,10,10,10      c5.662,0,10-4.642,10-10C380,274.416,375.469,269.984,370,269.982z"/><path id="XMLID_757_" style="fill:#5596FB;" d="M310,299.981c-5.476-0.002-10,4.436-10,9.995c0,5.599,4.574,10,10,10      c5.662,0,10-4.642,10-10C320,304.415,315.469,299.983,310,299.981z"/><path id="XMLID_756_" style="fill:#5596FB;" d="M260,249.982c-5.476-0.002-10,4.436-10,9.995c0,5.599,4.574,10,10,10      c5.662,0,10-4.642,10-10C270,254.416,265.469,249.984,260,249.982z"/><path id="XMLID_755_" style="fill:#5596FB;" d="M170,369.982c-5.476-0.002-10,4.436-10,9.995c0,5.599,4.574,10,10,10      c5.662,0,10-4.642,10-10C180,374.416,175.469,369.984,170,369.982z"/><path id="XMLID_754_" style="fill:#5596FB;" d="M100,309.979c-5.476-0.002-10,4.436-10,9.995c0,5.599,4.574,10,10,10      c5.662,0,10-4.642,10-10C110,314.412,105.469,309.981,100,309.979z"/><path id="XMLID_753_" style="fill:#5596FB;" d="M120,189.982c-5.476-0.002-10,4.436-10,9.995c0,5.599,4.574,10,10,10      c5.662,0,10-4.642,10-10C130,194.416,125.469,189.984,120,189.982z"/></g></g></g></g><g id="Layer_1"/></svg>