<?xml version="1.0" ?><svg id="Filled_Outline_1_" style="enable-background:new 0 0 64 64;" version="1.1" viewBox="0 0 64 64" xml:space="preserve" xmlns="http://www.w3.org/2000/svg" xmlns:xlink="http://www.w3.org/1999/xlink"><title/><desc/><style type="text/css">
	.st0{fill:#18C29C;}
	.st1{fill:#18A596;}
	.st2{fill:#FFBB2C;}
	.st3{fill:#FFD18B;}
	.st4{fill:#272A56;}
	.st5{fill:#FF7BAC;}
	.st6{fill:#FD58A1;}
	.st7{fill:none;}
	.st8{fill:#FFD8B1;}
	.st9{fill:#FFFDE9;}
	.st10{fill:#FFCAA9;}
	.st11{fill:#8C6239;}
	.st12{fill:#ECECD8;}
	.st13{fill:#96C6EE;}
	.st14{fill:#29ABE2;}
	.st15{fill:#A67C52;}
	.st16{fill:#CCCCCC;}
</style><g><g><g><rect class="st5" height="4" transform="matrix(-0.5 -0.866 0.866 -0.5 15.6173 63.0167)" width="25" x="13.5" y="25"/><polygon class="st13" points="29.982,29.897 24.518,28.433 27.018,32.763 32.482,34.227    "/><polygon class="st13" points="24.982,21.237 19.518,19.773 22.018,24.103 27.482,25.567    "/></g><path class="st5" d="M38,11l-6,6l-6-6c-1.657-1.657-1.657-4.343,0-6l0,0c1.657-1.657,4.343-1.657,6,0l0,0l0,0    c1.657-1.657,4.343-1.657,6,0l0,0C39.657,6.657,39.657,9.343,38,11z"/><path class="st9" d="M40,29H24c-1.105,0-2,0.895-2,2v0c0,1.105,0.895,2,2,2h16c1.105,0,2-0.895,2-2v0C42,29.895,41.105,29,40,29z"/><path class="st9" d="M38,25H26c-1.105,0-2,0.895-2,2v0c0,1.105,0.895,2,2,2h12c1.105,0,2-0.895,2-2v0C40,25.895,39.105,25,38,25z"/><path class="st9" d="M36,21h-6l-4-4v6c0,1.105,0.895,2,2,2h8c1.105,0,2-0.895,2-2v0C38,21.895,37.105,21,36,21z"/><g><rect class="st5" height="4" transform="matrix(0.5 -0.866 0.866 0.5 -4.3827 46.409)" width="25" x="25.5" y="25"/><polygon class="st13" points="34.018,29.897 39.482,28.433 36.982,32.763 31.518,34.227    "/><polygon class="st13" points="39.018,21.237 44.482,19.773 41.982,24.103 36.518,25.567    "/></g><polygon class="st3" points="41,33 39,61 25,61 23,33   "/><polygon class="st5" points="41,33 39,61 25,61 23,33   "/><polygon class="st6" points="41,33 40.71,37 23.29,37 23,33   "/><path class="st6" d="M38,33c0,8-6,14-14,14l1,14h14l2-28H38z"/><circle class="st9" cx="34" cy="53" r="2"/><circle class="st9" cx="28" cy="56" r="1"/><circle class="st9" cx="33" cy="47" r="1"/><path class="st6" d="M26,11c3.316,0,6-2.684,6-6l0,0c1.657-1.657,4.343-1.657,6,0l0,0c1.657,1.657,1.657,4.343,0,6l-6,6L26,11z"/></g><g><path class="st4" d="M31.293,17.707C31.488,17.902,31.744,18,32,18s0.512-0.098,0.707-0.293l6-6c2.044-2.044,2.044-5.37,0-7.414    C36.884,2.47,34.044,2.273,32,3.7c-2.044-1.429-4.884-1.231-6.707,0.593c-2.044,2.044-2.044,5.37,0,7.414L31.293,17.707z     M26.707,5.707C27.339,5.075,28.17,4.759,29,4.759s1.661,0.316,2.293,0.948c0.391,0.391,1.023,0.391,1.414,0    c1.264-1.264,3.322-1.264,4.586,0c1.265,1.265,1.265,3.321,0,4.586L32,15.586l-5.293-5.293    C25.442,9.028,25.442,6.972,26.707,5.707z"/><path class="st4" d="M46.948,16.916c-0.068-0.256-0.236-0.475-0.466-0.607l-3.465-2c-0.478-0.277-1.09-0.112-1.366,0.366    l-3.566,6.176C37.545,20.326,36.811,20,36,20h-5.586l-3.707-3.707c-0.286-0.286-0.716-0.372-1.09-0.217    C25.243,16.23,25,16.596,25,17v2.267l-2.651-4.593c-0.277-0.479-0.891-0.644-1.366-0.366l-3.465,2    c-0.229,0.133-0.397,0.352-0.466,0.607s-0.033,0.529,0.1,0.759l6.035,10.451C21.929,28.484,21,29.63,21,31    c0,0.89,0.397,1.682,1.014,2.232l1.989,27.84C24.04,61.595,24.476,62,25,62h14c0.524,0,0.96-0.405,0.997-0.929l1.989-27.84    C42.603,32.682,43,31.89,43,31c0-1.37-0.929-2.516-2.186-2.874l6.034-10.452C46.981,17.445,47.017,17.172,46.948,16.916z     M42.884,16.541l1.732,1l-0.793,1.373l-2.733,0.732L42.884,16.541z M33.959,32l0.718-1.244l2.732-0.732L36.268,32H33.959z     M25.033,23.325c0.03,0.276,0.087,0.542,0.187,0.791c-0.591,0.16-1.106,0.495-1.493,0.948l-2.137-3.7l2.732,0.732L25.033,23.325z     M25,27c0-0.552,0.448-1,1-1h2h7.113l-1.155,2H26C25.448,28,25,27.552,25,27z M38.824,27.574l-2.732,0.732l1.086-1.881    l2.732-0.732L38.824,27.574z M41.324,23.244l-2.732,0.732l1.086-1.881l2.733-0.732L41.324,23.244z M27,19.414l2.293,2.293    C29.48,21.895,29.734,22,30,22h6c0.481,0,0.865,0.348,0.96,0.801l-0.664,1.15C36.2,23.981,36.101,24,36,24h-8    c-0.552,0-1-0.448-1-1V19.414z M21.116,16.541l1.793,3.105l-2.732-0.732l-0.793-1.373L21.116,16.541z M24,30h2h6.804l-1.155,2H24    c-0.552,0-1-0.448-1-1S23.448,30,24,30z M38.069,60H25.931l-1.856-26h15.852l-0.143,2H31v2h8.64L38.069,60z M40,30    c0.552,0,1,0.448,1,1s-0.448,1-1,1h-1.422l1.155-2H40z"/><rect class="st4" height="2" width="2" x="27" y="36"/></g></g></svg>