<?xml version="1.0" ?><svg id="Filled_Outline_1_" style="enable-background:new 0 0 64 64;" version="1.1" viewBox="0 0 64 64" xml:space="preserve" xmlns="http://www.w3.org/2000/svg" xmlns:xlink="http://www.w3.org/1999/xlink"><title/><desc/><style type="text/css">
	.st0{fill:#18C29C;}
	.st1{fill:#18A596;}
	.st2{fill:#FFBB2C;}
	.st3{fill:#FFD18B;}
	.st4{fill:#272A56;}
	.st5{fill:#FF7BAC;}
	.st6{fill:#FD58A1;}
	.st7{fill:none;}
	.st8{fill:#FFD8B1;}
	.st9{fill:#FFFDE9;}
	.st10{fill:#FFCAA9;}
	.st11{fill:#8C6239;}
	.st12{fill:#ECECD8;}
	.st13{fill:#96C6EE;}
	.st14{fill:#29ABE2;}
	.st15{fill:#A67C52;}
	.st16{fill:#CCCCCC;}
</style><g><g><path class="st5" d="M47,47L47,47c0,1.105-0.895,2-2,2h0v12H19V49h0c-1.105,0-2-0.895-2-2v0c0-1.105,0.895-2,2-2h26    C46.105,45,47,45.895,47,47z"/><rect class="st6" height="12" width="26" x="19" y="49"/><path class="st13" d="M33,45h6V27l0.91-3.642C40.464,21.144,38.79,19,36.508,19h0C34.57,19,33,20.57,33,22.508V45z"/><path class="st14" d="M39,31h-6v14H23l4-10v-4h-3l2.362-9.448c0.375-1.5,1.723-2.552,3.269-2.552h0C31.492,19,33,20.508,33,22.369    V27L39,31z"/><polygon class="st13" points="33,45 33,35 27,35 33,31 39,31 39,45   "/><path class="st13" d="M51,53L51,53c-1.105,0-2,0.895-2,2v4c0,1.105,0.895,2,2,2h0c1.105,0,2-0.895,2-2v-4    C53,53.895,52.105,53,51,53z"/><rect class="st9" height="4" width="26" x="19" y="53"/><path class="st12" d="M45,53v4H19c8.51,0,15.94-1.61,19.92-4H45z"/></g><g><path class="st4" d="M49.944,29.974l0.111,1.996c3.881-0.218,6.479-1.59,8.567-2.693C59.974,28.563,61.04,28,62,28v-2    c-1.456,0-2.779,0.699-4.312,1.508C55.673,28.573,53.389,29.779,49.944,29.974z"/><path class="st4" d="M49,26c-2.601,0-5.202-0.506-8.316-1.614l0.196-0.786c0.34-1.355,0.041-2.765-0.819-3.867    C39.2,18.632,37.905,18,36.508,18c-1.403,0-2.643,0.658-3.471,1.667C32.236,18.659,31.015,18,29.631,18    c-0.992,0-1.918,0.334-2.661,0.905c-3.931-1.165-7.477-1.454-11.121-0.893c-3.449,0.53-5.796,1.818-7.867,2.954    C5.992,22.058,4.273,23,2,23v2c2.786,0,4.805-1.107,6.943-2.281c2.02-1.107,4.108-2.254,7.208-2.73    c3.106-0.477,6.147-0.278,9.481,0.617c-0.099,0.225-0.18,0.46-0.241,0.704l-0.278,1.112c-3.178-0.742-6.221-0.879-9.266-0.41    c-2.383,0.366-4.316,1.437-6.186,2.471C7.324,25.777,5.115,27,2,27v2c3.631,0,6.173-1.407,8.631-2.768    c1.795-0.993,3.491-1.932,5.521-2.244c2.82-0.433,5.541-0.314,8.477,0.372l-1.599,6.397c-0.075,0.299-0.007,0.615,0.182,0.857    C23.401,31.858,23.692,32,24,32h2v2.808L22.323,44H19c-1.654,0-3,1.346-3,3c0,1.302,0.839,2.402,2,2.816V61c0,0.553,0.448,1,1,1    h26c0.553,0,1-0.447,1-1v-3h2v1c0,1.654,1.346,3,3,3s3-1.346,3-3v-4c0-1.654-1.346-3-3-3s-3,1.346-3,3v1h-2v-6.184    c1.161-0.414,2-1.514,2-2.816c0-1.654-1.346-3-3-3h-5V30.315c1.344,0.473,2.572,0.828,3.784,1.097l0.432-1.953    c-1.323-0.293-2.685-0.709-4.216-1.275v-1.061l0.197-0.787C43.455,27.479,46.213,28,49,28c3.723,0,6.671-1.436,9.04-2.589    C59.595,24.654,60.938,24,62,24v-2c-1.523,0-3.058,0.747-4.835,1.613C54.866,24.731,52.262,26,49,26z M50,55c0-0.552,0.448-1,1-1    s1,0.448,1,1v4c0,0.552-0.448,1-1,1s-1-0.448-1-1V55z M36.508,20c0.777,0,1.498,0.352,1.977,0.965    c0.479,0.612,0.645,1.396,0.456,2.151l-0.91,3.642C38.01,26.837,38,26.918,38,27v2.132l-4-2.667v-3.957    C34,21.125,35.125,20,36.508,20z M25.281,30l2.051-8.206C27.596,20.738,28.542,20,29.631,20C30.937,20,32,21.063,32,22.369V27    c0,0.334,0.167,0.646,0.445,0.832L35.697,30H33c-0.197,0-0.391,0.059-0.555,0.168L28,33.132V31c0-0.553-0.448-1-1-1H25.281z     M27.677,36H32v8h-7.523L27.677,36z M44,56H20v-2h18v-2H20v-2h24V56z M44,60H20v-2h24V60z M46,47c0,0.552-0.448,1-1,1H19    c-0.551,0-1-0.448-1-1s0.449-1,1-1h26C45.552,46,46,46.448,46,47z M34,44v-9c0-0.553-0.447-1-1-1h-2.697l3-2H38v12H34z"/><path class="st4" d="M49,22c-1.831,0-3.706-0.275-5.73-0.841l-0.539,1.926C44.934,23.701,46.984,24,49,24    c3.707,0,6.631-1.427,8.979-2.573C59.547,20.661,60.901,20,62,20v-2c-1.562,0-3.107,0.755-4.898,1.629    C54.825,20.74,52.245,22,49,22z"/><path class="st4" d="M15.191,15.981c4.021-0.785,7.989-0.439,12.487,1.089l0.643-1.895c-4.842-1.644-9.135-2.011-13.512-1.157    c-3.516,0.682-5.938,2.053-7.884,3.154C5.122,18.193,3.697,19,2,19v2c2.224,0,3.933-0.967,5.911-2.087    C9.825,17.83,11.995,16.602,15.191,15.981z"/><path class="st4" d="M56.397,15.806C54.267,16.885,52.064,18,49,18c-4.807,0-9.215-1.947-13.881-4.01    c-6.398-2.827-13.013-5.754-21.329-3.968c-3.72,0.797-6.143,2.249-8.089,3.416C4.246,14.311,3.096,15,2,15v2    c1.649,0,3.077-0.855,4.729-1.847c1.82-1.091,4.084-2.448,7.48-3.176c7.681-1.646,13.995,1.144,20.101,3.842    C38.962,17.875,43.771,20,49,20c3.542,0,6.07-1.28,8.301-2.41C58.985,16.737,60.44,16,62,16v-2    C59.963,14,58.231,14.877,56.397,15.806z"/><path class="st4" d="M49,16c1.654,0,3-1.346,3-3V4h3V2h-4c-0.553,0-1,0.447-1,1v7.184C49.686,10.072,49.352,10,49,10    c-1.654,0-3,1.346-3,3S47.346,16,49,16z M49,12c0.552,0,1,0.448,1,1s-0.448,1-1,1s-1-0.448-1-1S48.448,12,49,12z"/><path class="st4" d="M16,31c0-0.553-0.448-1-1-1H7c-0.552,0-1,0.447-1,1v7.184C5.686,38.072,5.352,38,5,38c-1.654,0-3,1.346-3,3    s1.346,3,3,3s3-1.346,3-3v-5h6v2.184C13.686,38.072,13.352,38,13,38c-1.654,0-3,1.346-3,3s1.346,3,3,3s3-1.346,3-3V31z M5,42    c-0.551,0-1-0.448-1-1s0.449-1,1-1s1,0.448,1,1S5.551,42,5,42z M8,34v-2h6v2H8z M13,42c-0.551,0-1-0.448-1-1s0.449-1,1-1    s1,0.448,1,1S13.551,42,13,42z"/><rect class="st4" height="2" width="2" x="40" y="52"/><path class="st4" d="M45,36c-1.654,0-3,1.346-3,3s1.346,3,3,3s3-1.346,3-3V29h-2v7.184C45.686,36.072,45.352,36,45,36z M45,40    c-0.552,0-1-0.448-1-1s0.448-1,1-1s1,0.448,1,1S45.552,40,45,40z"/></g></g></svg>